<?xml version="1.0" encoding="iso-8859-1"?>
<!-- Generator: Adobe Illustrator 16.0.0, SVG Export Plug-In . SVG Version: 6.00 Build 0)  -->
<!DOCTYPE svg PUBLIC "-//W3C//DTD SVG 1.1//EN" "http://www.w3.org/Graphics/SVG/1.1/DTD/svg11.dtd">
<svg version="1.1" id="Capa_1" xmlns="http://www.w3.org/2000/svg" xmlns:xlink="http://www.w3.org/1999/xlink" x="0px" y="0px"
	 width="566.645px" height="566.645px" viewBox="0 0 566.645 566.645" style="enable-background:new 0 0 566.645 566.645;"
	 xml:space="preserve">
<g>
	<g>
		<g>
			<path d="M349.656,119.911H28.197C12.652,119.911,0,132.563,0,148.108v194.818c0,15.545,12.654,28.196,28.197,28.196h113.922
				v40.53H92.472c-7.636,0-13.823,6.188-13.823,13.823v19.953c0,7.638,6.188,13.823,13.823,13.823h192.911
				c7.636,0,13.82-6.187,13.82-13.823v-19.953c0-7.636-6.186-13.823-13.82-13.823h-49.64v-40.53h113.914
				c15.542,0,28.195-12.653,28.195-28.196V148.108C377.854,132.563,365.201,119.911,349.656,119.911z M349.104,342.375
				l-320.355,0.551l-0.553-194.268l320.909-0.553V342.375z"/>
			<path d="M553.589,105.592H414.913c-7.207,0-13.056,5.849-13.056,13.054v329.35c0,7.205,5.849,13.056,13.056,13.056h138.676
				c7.207,0,13.056-5.851,13.056-13.056V118.646C566.646,111.441,560.796,105.592,553.589,105.592z M438.897,127.623h90.713
				c5.298,0,9.584,4.286,9.584,9.582c0,5.298-4.284,9.584-9.584,9.584h-90.714c-5.296,0-9.581-4.286-9.581-9.584
				C429.315,131.908,433.604,127.623,438.897,127.623z M484.241,436.972c-8.095,0-14.646-6.551-14.646-14.646
				c0-8.104,6.552-14.655,14.646-14.655c8.105,0,14.657,6.551,14.657,14.655C498.898,430.419,492.348,436.972,484.241,436.972z
				 M484.241,375.888c-11.165,0-20.204-9.052-20.204-20.216c0-11.174,9.041-20.225,20.204-20.225
				c11.175,0,20.225,9.051,20.225,20.225C504.466,366.836,495.416,375.888,484.241,375.888z M543.342,229.622
				c0,5.343-4.333,9.676-9.676,9.676h-98.819c-5.343,0-9.676-4.331-9.676-9.676v-29.817c0-5.345,4.333-9.678,9.676-9.678h98.819
				c5.343,0,9.676,4.333,9.676,9.678V229.622z"/>
		</g>
	</g>
</g>
<g>
</g>
<g>
</g>
<g>
</g>
<g>
</g>
<g>
</g>
<g>
</g>
<g>
</g>
<g>
</g>
<g>
</g>
<g>
</g>
<g>
</g>
<g>
</g>
<g>
</g>
<g>
</g>
<g>
</g>
</svg>
