<?xml version="1.0" encoding="iso-8859-1"?>
<!-- Generator: Adobe Illustrator 17.1.0, SVG Export Plug-In . SVG Version: 6.00 Build 0)  -->
<!DOCTYPE svg PUBLIC "-//W3C//DTD SVG 1.1//EN" "http://www.w3.org/Graphics/SVG/1.1/DTD/svg11.dtd">
<svg version="1.1" id="Capa_1" xmlns="http://www.w3.org/2000/svg" xmlns:xlink="http://www.w3.org/1999/xlink" x="0px" y="0px"
	 viewBox="0 0 190.46 190.46" style="enable-background:new 0 0 190.46 190.46;" xml:space="preserve">
<path d="M190.451,23.301c-0.183,6.819-3.141,13.292-8.115,17.758L21.453,181.293l0.631,0.631c1.953,1.953,1.953,5.119,0,7.071
	c-0.977,0.976-2.256,1.464-3.536,1.464c-1.28,0-2.559-0.488-3.536-1.464l-4.417-4.417l-4.714-4.714l-4.417-4.417
	c-1.953-1.953-1.953-5.119,0-7.071c1.953-1.952,5.118-1.952,7.071,0l0.631,0.631L149.353,8.18C154.037,2.961,160.751,0,167.822,0
	c6.205,0,11.934,2.312,16.13,6.508C188.317,10.872,190.624,16.836,190.451,23.301z M137.218,127.236
	c-13.746,0-24.928,11.183-24.928,24.928c0,13.746,11.183,24.928,24.928,24.928c13.746,0,24.928-11.183,24.928-24.928
	C162.147,138.419,150.964,127.236,137.218,127.236z"/>
<g>
</g>
<g>
</g>
<g>
</g>
<g>
</g>
<g>
</g>
<g>
</g>
<g>
</g>
<g>
</g>
<g>
</g>
<g>
</g>
<g>
</g>
<g>
</g>
<g>
</g>
<g>
</g>
<g>
</g>
</svg>
